<svg id="Laag_1" data-name="Laag 1" xmlns="http://www.w3.org/2000/svg" viewBox="0 0 48.17 59"><defs><style>.cls-1{fill:#e15c5c;}</style></defs><title>Tekengebied 1</title><g id="Group_68" data-name="Group 68"><path id="Path_47" data-name="Path 47" class="cls-1" d="M32.05,50.45a2,2,0,0,0,2-2V22.91a2,2,0,1,0-4,0h0V48.43A2,2,0,0,0,32.05,50.45Z"/><path id="Path_48" data-name="Path 48" class="cls-1" d="M16.12,50.45a2,2,0,0,0,2-2V22.91a2,2,0,0,0-4.05,0h0V48.43A2,2,0,0,0,16.12,50.45Z"/><path id="Path_49" data-name="Path 49" class="cls-1" d="M48.12,12.1h0A5.84,5.84,0,0,0,42.34,7H36.1V6a6,6,0,0,0-6-6H18.05a6,6,0,0,0-6,6V7H5.83a5.83,5.83,0,0,0-2,11.31V51.1A8.18,8.18,0,0,0,6,56.7,7.36,7.36,0,0,0,11.31,59H36.86a7.36,7.36,0,0,0,5.31-2.3,8.18,8.18,0,0,0,2.17-5.6V18.33A5.84,5.84,0,0,0,48.12,12.1Zm-7.83,6.53V51.1A3.62,3.62,0,0,1,36.92,55H11.31a3.62,3.62,0,0,1-3.43-3.79V18.63ZM16.12,6a1.93,1.93,0,0,1,2-1.95h12a1.93,1.93,0,0,1,2,2V7H16.12Zm28,6.82a1.76,1.76,0,0,1-1.76,1.76H5.83a1.76,1.76,0,0,1,0-3.51H42.34A1.75,1.75,0,0,1,44.1,12.82Z"/><path id="Path_50" data-name="Path 50" class="cls-1" d="M24.09,50.45a2,2,0,0,0,2-2V22.91a2,2,0,0,0-4.05,0h0V48.43A2,2,0,0,0,24.09,50.45Z"/></g></svg>