<svg id="Laag_1" data-name="Laag 1" xmlns="http://www.w3.org/2000/svg" viewBox="0 0 53.64 53.75"><defs><style>.cls-1{fill:#a0a0a0;}</style></defs><title>Tekengebied 1</title><g id="Group_61" data-name="Group 61"><path id="Path_42" data-name="Path 42" class="cls-1" d="M.06,40.31,0,51.37a2.41,2.41,0,0,0,.68,1.7,2.26,2.26,0,0,0,1.64.68l11-.06A2.27,2.27,0,0,0,15,53L53,15a2.4,2.4,0,0,0,0-3.34L42.07.68a2.38,2.38,0,0,0-3.34,0l-7.6,7.65L.74,38.67A2.52,2.52,0,0,0,.06,40.31ZM40.43,5.67l7.65,7.65-4.31,4.31L36.12,10ZM4.76,41.33l28-28L40.43,21l-28,28L4.71,49Z"/></g></svg>