<?xml version="1.0" encoding="utf-8"?>
<!-- Generator: Adobe Illustrator 23.0.0, SVG Export Plug-In . SVG Version: 6.00 Build 0)  -->
<svg version="1.1" id="Laag_1" xmlns="http://www.w3.org/2000/svg" xmlns:xlink="http://www.w3.org/1999/xlink" x="0px" y="0px"
	 viewBox="0 0 506.5 207.3" style="enable-background:new 0 0 506.5 207.3;" xml:space="preserve">
<style type="text/css">
	.st0{fill:#6FAED8;}
	.st1{fill:#FFFFFF;}
</style>
<title>Tekengebied 1</title>
<rect class="st0" width="506.5" height="207.3"/>
<g>
	<path class="st1" d="M98.8,58.6h14.1v50.2L138.3,83h17.3l-24.5,23.5l26.8,40.4h-17.2l-19.5-31l-8.4,8.2v22.9H98.8V58.6z"/>
	<path class="st1" d="M154.9,83h15l12.5,47.7h0.2l12-47.7h14.2l11.5,47.7h0.2l13-47.7h14.3l-20,63.9h-14.5l-11.9-47.5h-0.2
		l-11.7,47.5h-14.8L154.9,83z"/>
	<path class="st1" d="M258.8,118.6c0,10,5.4,18.9,17.2,18.9c8.2,0,13.1-3.6,15.6-10.6h13.4c-3.1,14-15,21.8-28.9,21.8
		c-20,0-31.3-14-31.3-33.6c0-18.1,11.9-33.8,30.9-33.8c20.2,0,32.5,18.1,30.2,37.3H258.8z M291.7,109.4c-0.5-8.9-6.5-16.9-16.1-16.9
		c-9.8,0-16.4,7.4-16.8,16.9L291.7,109.4z"/>
	<path class="st1" d="M323.4,118.6c0,10,5.4,18.9,17.2,18.9c8.2,0,13.1-3.6,15.6-10.6h13.4c-3.1,14-15,21.8-28.9,21.8
		c-20,0-31.3-14-31.3-33.6c0-18.1,11.9-33.8,30.9-33.8c20.2,0,32.5,18.1,30.2,37.3H323.4z M356.3,109.4c-0.5-8.9-6.5-17-16.1-17
		c-9.8,0-16.4,7.4-16.8,16.9L356.3,109.4z"/>
	<path class="st1" d="M367.4,83h10.6V63.8h14.1V83h12.7v10.5h-12.7v34.1c0,5.8,0.5,8.8,6.8,8.8c2,0.1,4-0.1,5.9-0.5v10.9
		c-3.1,0.2-6.1,0.7-9.2,0.7c-14.7,0-17.4-5.7-17.7-16.3V93.5h-10.6V83z"/>
</g>
</svg>
