<?xml version="1.0" encoding="utf-8"?>
<!-- Generator: Adobe Illustrator 23.0.0, SVG Export Plug-In . SVG Version: 6.00 Build 0)  -->
<svg version="1.1" id="Laag_1" xmlns="http://www.w3.org/2000/svg" xmlns:xlink="http://www.w3.org/1999/xlink" x="0px" y="0px"
	 viewBox="0 0 444.9 116.6" style="enable-background:new 0 0 444.9 116.6;" xml:space="preserve">
<style type="text/css">
	.st0{fill:#E74C3C;}
	.st1{fill:#1A1A1A;}
	.st2{fill:none;stroke:#1A1A1A;stroke-width:13.3;stroke-miterlimit:10;}
	.st3{fill:#FFFFFF;}
	.st4{fill:none;stroke:#FFFFFF;stroke-width:13.3;stroke-miterlimit:10;}
	.st5{fill:#445F7A;}
	.st6{fill:#CBE6FF;}
	.st7{fill:#6FAED8;}
	.st8{fill:#4D4D4D;}
	.st9{fill:#ED1C24;}
	.st10{fill:#3D3D3D;}
	.st11{fill:none;stroke:#6FAED8;stroke-width:20;stroke-miterlimit:10;}
	.st12{fill:none;stroke:#6FAED8;stroke-width:20;stroke-linecap:round;stroke-miterlimit:10;}
</style>
<rect x="-35.9" y="-524.8" class="st0" width="523.4" height="201.8"/>
<g>
	<path class="st1" d="M136.8-774.5h13.3v36.3h0.2l25.2-36.3h14.6l-24.1,35.2l26.6,48.2h-15.1l-20.2-37.5l-7.4,10.5v27h-13.3V-774.5z
		"/>
	<path class="st1" d="M185.3-754h13.1l8.8,49.5h0.2l9.3-49.5H231l9.3,49.5h0.2l8.6-49.5h12.6l-14.4,62.8h-14.1l-9.8-48.8h-0.2
		l-9,48.8h-14.7L185.3-754z"/>
	<path class="st1" d="M273.5-720.9v3.6c0,8.4,1.1,19.2,10.5,19.2c9,0,10-10.3,10-14h11.9c0,13.9-8.4,22.7-22.1,22.7
		c-10.3,0-23-3-23-32.1c0-16.5,3.5-34,23.2-34c17.5,0,22.2,10.5,22.2,28v6.7H273.5z M293.7-729.6v-3.4c0-7.9-2.6-14-9.7-14
		c-8.1,0-10.5,7.9-10.5,16.1v1.3H293.7z"/>
	<path class="st1" d="M306.4-754h8.6v-17.9h12.6v17.9h10.3v9.3h-10.3v37.5c0,4.9,1.4,6.7,5.7,6.7c1.9,0,3.4-0.1,4.6-0.3v9.3
		c-2.7,0.7-6.2,1.1-10.2,1.1c-8.5,0-12.7-2.3-12.7-15.2v-39h-8.6V-754z"/>
	<path class="st1" d="M336.5-754h8.6v-17.9h12.6v17.9h10.3v9.3h-10.3v37.5c0,4.9,1.4,6.7,5.7,6.7c1.9,0,3.4-0.1,4.6-0.3v9.3
		c-2.7,0.7-6.2,1.1-10.2,1.1c-8.5,0-12.7-2.3-12.7-15.2v-39h-8.6V-754z"/>
	<path class="st1" d="M380.8-720.9v3.6c0,8.4,1.1,19.2,10.5,19.2c9,0,10-10.3,10-14h11.9c0,13.9-8.4,22.7-22.1,22.7
		c-10.3,0-23-3-23-32.1c0-16.5,3.5-34,23.2-34c17.5,0,22.2,10.5,22.2,28v6.7H380.8z M401-729.6v-3.4c0-7.9-2.6-14-9.7-14
		c-8.1,0-10.5,7.9-10.5,16.1v1.3H401z"/>
	<path class="st1" d="M419.3-754h12.6v9.8h0.2c2.8-7,7.5-11.4,14.6-11.4c1.4,0,2.2,0.2,3,0.5v12.8c-0.9-0.2-3.2-0.7-5.3-0.7
		c-5.7,0-12.6,2.6-12.6,14.2v37.6h-12.6V-754z"/>
</g>
<polygon class="st2" points="11.6,-767.9 114.4,-767.9 114.4,-699.5 46.5,-669.4 52.6,-697.8 11.6,-697.8 "/>
<g>
	<path class="st3" d="M131.9-466.4h13.3v36.3h0.2l25.2-36.3h14.6l-24.1,35.2l26.6,48.2h-15.1l-20.2-37.5l-7.4,10.5v27h-13.3V-466.4z
		"/>
	<path class="st3" d="M180.3-445.9h13.1l8.8,49.5h0.2l9.3-49.5H226l9.3,49.5h0.2l8.6-49.5h12.6L242.5-383h-14.1l-9.8-48.8h-0.2
		l-9,48.8h-14.7L180.3-445.9z"/>
	<path class="st3" d="M268.5-412.8v3.6c0,8.4,1.1,19.2,10.5,19.2c9,0,10-10.3,10-14H301c0,13.9-8.4,22.7-22.1,22.7
		c-10.3,0-23-3-23-32.1c0-16.5,3.5-34,23.2-34c17.5,0,22.2,10.5,22.2,28v6.7H268.5z M288.7-421.5v-3.4c0-7.9-2.6-14-9.7-14
		c-8.1,0-10.5,7.9-10.5,16.1v1.3H288.7z"/>
	<path class="st3" d="M301.4-445.9h8.6v-17.9h12.6v17.9H333v9.3h-10.3v37.5c0,4.9,1.4,6.7,5.7,6.7c1.9,0,3.4-0.1,4.6-0.3v9.3
		c-2.7,0.7-6.2,1.1-10.2,1.1c-8.5,0-12.7-2.3-12.7-15.2v-39h-8.6V-445.9z"/>
	<path class="st3" d="M331.6-445.9h8.6v-17.9h12.6v17.9h10.3v9.3h-10.3v37.5c0,4.9,1.4,6.7,5.7,6.7c1.9,0,3.4-0.1,4.6-0.3v9.3
		c-2.7,0.7-6.2,1.1-10.2,1.1c-8.5,0-12.7-2.3-12.7-15.2v-39h-8.6V-445.9z"/>
	<path class="st3" d="M375.8-412.8v3.6c0,8.4,1.1,19.2,10.5,19.2c9,0,10-10.3,10-14h11.9c0,13.9-8.4,22.7-22.1,22.7
		c-10.3,0-23-3-23-32.1c0-16.5,3.5-34,23.2-34c17.5,0,22.2,10.5,22.2,28v6.7H375.8z M396-421.5v-3.4c0-7.9-2.6-14-9.7-14
		c-8.1,0-10.5,7.9-10.5,16.1v1.3H396z"/>
	<path class="st3" d="M414.4-445.9H427v9.8h0.2c2.8-7,7.5-11.4,14.6-11.4c1.4,0,2.2,0.2,3,0.5v12.8c-0.9-0.2-3.2-0.7-5.3-0.7
		c-5.7,0-12.6,2.6-12.6,14.2v37.6h-12.6V-445.9z"/>
</g>
<polygon class="st4" points="6.7,-459.8 109.5,-459.8 109.5,-391.4 41.5,-361.2 47.6,-389.7 6.7,-389.7 "/>
<g>
	<rect x="-35.9" y="-245.2" class="st5" width="523.4" height="201.8"/>
</g>
<g>
	<g>
		<path class="st3" d="M131.9-186.8h13.3v36.3h0.2l25.2-36.3h14.6l-24.1,35.2l26.6,48.2h-15.1l-20.2-37.5l-7.4,10.5v27h-13.3V-186.8
			z"/>
	</g>
	<g>
		<path class="st3" d="M180.3-166.3h13.1l8.8,49.5h0.2l9.3-49.5H226l9.3,49.5h0.2l8.6-49.5h12.6l-14.4,62.8h-14.1l-9.8-48.8h-0.2
			l-9,48.8h-14.7L180.3-166.3z"/>
	</g>
	<g>
		<path class="st3" d="M268.5-133.2v3.6c0,8.4,1.1,19.2,10.5,19.2c9,0,10-10.3,10-14H301c0,13.9-8.4,22.7-22.1,22.7
			c-10.3,0-23-3-23-32.1c0-16.5,3.5-34,23.2-34c17.5,0,22.2,10.5,22.2,28v6.7H268.5z M288.7-141.9v-3.4c0-7.9-2.6-14-9.7-14
			c-8.1,0-10.5,7.9-10.5,16.1v1.3H288.7z"/>
	</g>
	<g>
		<path class="st3" d="M301.4-166.3h8.6v-17.9h12.6v17.9H333v9.3h-10.3v37.5c0,4.9,1.4,6.7,5.7,6.7c1.9,0,3.4-0.1,4.6-0.3v9.3
			c-2.7,0.7-6.2,1.1-10.2,1.1c-8.5,0-12.7-2.3-12.7-15.2v-39h-8.6V-166.3z"/>
	</g>
	<g>
		<path class="st3" d="M331.6-166.3h8.6v-17.9h12.6v17.9h10.3v9.3h-10.3v37.5c0,4.9,1.4,6.7,5.7,6.7c1.9,0,3.4-0.1,4.6-0.3v9.3
			c-2.7,0.7-6.2,1.1-10.2,1.1c-8.5,0-12.7-2.3-12.7-15.2v-39h-8.6V-166.3z"/>
	</g>
	<g>
		<path class="st3" d="M375.8-133.2v3.6c0,8.4,1.1,19.2,10.5,19.2c9,0,10-10.3,10-14h11.9c0,13.9-8.4,22.7-22.1,22.7
			c-10.3,0-23-3-23-32.1c0-16.5,3.5-34,23.2-34c17.5,0,22.2,10.5,22.2,28v6.7H375.8z M396-141.9v-3.4c0-7.9-2.6-14-9.7-14
			c-8.1,0-10.5,7.9-10.5,16.1v1.3H396z"/>
	</g>
	<g>
		<path class="st3" d="M414.4-166.3H427v9.8h0.2c2.8-7,7.5-11.4,14.6-11.4c1.4,0,2.2,0.2,3,0.5v12.8c-0.9-0.2-3.2-0.7-5.3-0.7
			c-5.7,0-12.6,2.6-12.6,14.2v37.6h-12.6V-166.3z"/>
	</g>
</g>
<g>
	<path class="st6" d="M32.3-70.3l7.1-33.2H0v-83.4h116.1v79.4L32.3-70.3z M13.3-116.8h42.5L50.8-93l52.1-23.1v-57.4H13.3V-116.8z"/>
</g>
<g>
	<g>
		<path class="st5" d="M131.9,0.1h13.3v36.3h0.2l25.2-36.3h14.6l-24.1,35.2l26.6,48.2h-15.1l-20.2-37.5l-7.4,10.5v27h-13.3V0.1z"/>
	</g>
	<g>
		<path class="st5" d="M180.3,20.6h13.1l8.8,49.5h0.2l9.3-49.5H226l9.3,49.5h0.2l8.6-49.5h12.6l-14.4,62.8h-14.1l-9.8-48.8h-0.2
			l-9,48.8h-14.7L180.3,20.6z"/>
	</g>
	<g>
		<path class="st5" d="M268.5,53.7v3.6c0,8.4,1.1,19.2,10.5,19.2c9,0,10-10.3,10-14H301c0,13.9-8.4,22.7-22.1,22.7
			c-10.3,0-23-3-23-32.1c0-16.5,3.5-34,23.2-34c17.5,0,22.2,10.5,22.2,28v6.7H268.5z M288.7,45v-3.4c0-7.9-2.6-14-9.7-14
			c-8.1,0-10.5,7.9-10.5,16.1V45H288.7z"/>
	</g>
	<g>
		<path class="st5" d="M301.4,20.6h8.6V2.7h12.6v17.9H333v9.3h-10.3v37.5c0,4.9,1.4,6.7,5.7,6.7c1.9,0,3.4-0.1,4.6-0.3v9.3
			c-2.7,0.7-6.2,1.1-10.2,1.1c-8.5,0-12.7-2.3-12.7-15.2v-39h-8.6V20.6z"/>
	</g>
	<g>
		<path class="st5" d="M331.6,20.6h8.6V2.7h12.6v17.9h10.3v9.3h-10.3v37.5c0,4.9,1.4,6.7,5.7,6.7c1.9,0,3.4-0.1,4.6-0.3v9.3
			c-2.7,0.7-6.2,1.1-10.2,1.1c-8.5,0-12.7-2.3-12.7-15.2v-39h-8.6V20.6z"/>
	</g>
	<g>
		<path class="st5" d="M375.8,53.7v3.6c0,8.4,1.1,19.2,10.5,19.2c9,0,10-10.3,10-14h11.9c0,13.9-8.4,22.7-22.1,22.7
			c-10.3,0-23-3-23-32.1c0-16.5,3.5-34,23.2-34c17.5,0,22.2,10.5,22.2,28v6.7H375.8z M396,45v-3.4c0-7.9-2.6-14-9.7-14
			c-8.1,0-10.5,7.9-10.5,16.1V45H396z"/>
	</g>
	<g>
		<path class="st5" d="M414.4,20.6H427v9.8h0.2c2.8-7,7.5-11.4,14.6-11.4c1.4,0,2.2,0.2,3,0.5v12.8c-0.9-0.2-3.2-0.7-5.3-0.7
			c-5.7,0-12.6,2.6-12.6,14.2v37.6h-12.6V20.6z"/>
	</g>
</g>
<g>
	<path class="st7" d="M32.3,116.6l7.1-33.2H0V0h116.1v79.4L32.3,116.6z M13.3,70.1h42.5l-5.1,23.8l52.1-23.1V13.3H13.3V70.1z"/>
</g>
<g>
	<path class="st8" d="M-1159.2-612.2h13.3v36.3h0.2l25.2-36.3h14.6l-24.1,35.2l26.6,48.2h-15.1l-20.2-37.5l-7.4,10.5v27h-13.3
		V-612.2z"/>
	<path class="st8" d="M-1110.7-591.6h13.1l8.8,49.5h0.2l9.3-49.5h14.2l9.3,49.5h0.2l8.6-49.5h12.6l-14.4,62.8h-14.1l-9.8-48.8h-0.2
		l-9,48.8h-14.7L-1110.7-591.6z"/>
	<path class="st8" d="M-1022.5-558.6v3.6c0,8.4,1.1,19.2,10.5,19.2c9,0,10-10.3,10-14h11.9c0,13.9-8.4,22.7-22.1,22.7
		c-10.3,0-23-3-23-32.1c0-16.5,3.5-34,23.2-34c17.5,0,22.2,10.5,22.2,28v6.7H-1022.5z M-1002.3-567.2v-3.4c0-7.9-2.6-14-9.7-14
		c-8.1,0-10.5,7.9-10.5,16.1v1.3H-1002.3z"/>
	<path class="st8" d="M-989.6-591.6h8.6v-17.9h12.6v17.9h10.3v9.3h-10.3v37.5c0,4.9,1.4,6.7,5.7,6.7c1.9,0,3.4-0.1,4.6-0.3v9.3
		c-2.7,0.7-6.2,1.1-10.2,1.1c-8.5,0-12.7-2.3-12.7-15.2v-39h-8.6V-591.6z"/>
	<path class="st8" d="M-959.5-591.6h8.6v-17.9h12.6v17.9h10.3v9.3h-10.3v37.5c0,4.9,1.4,6.7,5.7,6.7c1.9,0,3.4-0.1,4.6-0.3v9.3
		c-2.7,0.7-6.2,1.1-10.2,1.1c-8.5,0-12.7-2.3-12.7-15.2v-39h-8.6V-591.6z"/>
	<path class="st8" d="M-915.2-558.6v3.6c0,8.4,1.1,19.2,10.5,19.2c9,0,10-10.3,10-14h11.9c0,13.9-8.4,22.7-22.1,22.7
		c-10.3,0-23-3-23-32.1c0-16.5,3.5-34,23.2-34c17.5,0,22.2,10.5,22.2,28v6.7H-915.2z M-895-567.2v-3.4c0-7.9-2.6-14-9.7-14
		c-8.1,0-10.5,7.9-10.5,16.1v1.3H-895z"/>
	<path class="st8" d="M-876.7-591.6h12.6v9.8h0.2c2.8-7,7.5-11.4,14.6-11.4c1.4,0,2.2,0.2,3,0.5v12.8c-0.9-0.2-3.2-0.7-5.3-0.7
		c-5.7,0-12.6,2.6-12.6,14.2v37.6h-12.6V-591.6z"/>
</g>
<text transform="matrix(1 0 0 1 -1166.0586 -708.5024)"><tspan x="0" y="0" class="st1" style="font-family:'HelveticaNeue-MediumCond'; font-size:116.786px; letter-spacing:-7;">Kw</tspan><tspan x="126.6" y="0" class="st1" style="font-family:'HelveticaNeue-MediumCond'; font-size:116.786px; letter-spacing:-4;">e</tspan><tspan x="176" y="0" class="st1" style="font-family:'HelveticaNeue-MediumCond'; font-size:116.786px; letter-spacing:-2;">t</tspan><tspan x="206.1" y="0" class="st1" style="font-family:'HelveticaNeue-MediumCond'; font-size:116.786px; letter-spacing:-4;">te</tspan><tspan x="283.3" y="0" class="st1" style="font-family:'HelveticaNeue-MediumCond'; font-size:116.786px;">r</tspan></text>
<g>
	<path class="st1" d="M-1159.2-445.7h13.3v36.3h0.2l25.2-36.3h14.6l-24.1,35.2l26.6,48.2h-15.1l-20.2-37.5l-7.4,10.5v27h-13.3
		V-445.7z"/>
	<path class="st1" d="M-1110.7-425.1h13.1l8.8,49.5h0.2l9.3-49.5h14.2l9.3,49.5h0.2l8.6-49.5h12.6l-14.4,62.8h-14.1l-9.8-48.8h-0.2
		l-9,48.8h-14.7L-1110.7-425.1z"/>
	<path class="st1" d="M-1022.5-392.1v3.6c0,8.4,1.1,19.2,10.5,19.2c9,0,10-10.3,10-14h11.9c0,13.9-8.4,22.7-22.1,22.7
		c-10.3,0-23-3-23-32.1c0-16.5,3.5-34,23.2-34c17.5,0,22.2,10.5,22.2,28v6.7H-1022.5z M-1002.3-400.7v-3.4c0-7.9-2.6-14-9.7-14
		c-8.1,0-10.5,7.9-10.5,16.1v1.3H-1002.3z"/>
	<path class="st1" d="M-989.6-425.1h8.6V-443h12.6v17.9h10.3v9.3h-10.3v37.5c0,4.9,1.4,6.7,5.7,6.7c1.9,0,3.4-0.1,4.6-0.3v9.3
		c-2.7,0.7-6.2,1.1-10.2,1.1c-8.5,0-12.7-2.3-12.7-15.2v-39h-8.6V-425.1z"/>
	<path class="st1" d="M-959.5-425.1h8.6V-443h12.6v17.9h10.3v9.3h-10.3v37.5c0,4.9,1.4,6.7,5.7,6.7c1.9,0,3.4-0.1,4.6-0.3v9.3
		c-2.7,0.7-6.2,1.1-10.2,1.1c-8.5,0-12.7-2.3-12.7-15.2v-39h-8.6V-425.1z"/>
	<path class="st1" d="M-915.2-392.1v3.6c0,8.4,1.1,19.2,10.5,19.2c9,0,10-10.3,10-14h11.9c0,13.9-8.4,22.7-22.1,22.7
		c-10.3,0-23-3-23-32.1c0-16.5,3.5-34,23.2-34c17.5,0,22.2,10.5,22.2,28v6.7H-915.2z M-895-400.7v-3.4c0-7.9-2.6-14-9.7-14
		c-8.1,0-10.5,7.9-10.5,16.1v1.3H-895z"/>
	<path class="st1" d="M-876.7-425.1h12.6v9.8h0.2c2.8-7,7.5-11.4,14.6-11.4c1.4,0,2.2,0.2,3,0.5v12.8c-0.9-0.2-3.2-0.7-5.3-0.7
		c-5.7,0-12.6,2.6-12.6,14.2v37.6h-12.6V-425.1z"/>
</g>
<path class="st9" d="M-1296.7-798.1c30.7,1.6,60.7,16.8,82.3,39.1c8.6,8.9,16.2,19.3,19.6,31.2c3.4,11.9,2.2,25.6-5.2,35.5
	c-19.9,26.6-47.2-0.6-66-14c-25.9-18.3-50.9-37.8-75.1-58.4c-4.8-4.1-10.1-9.6-8.9-15.9c1.1-5.5,6.6-8.7,11.8-10.8
	C-1324.7-796.8-1310.6-798.9-1296.7-798.1z"/>
<g>
	<path class="st3" d="M-1309.2-780.1c9.7,2,18.9,5.5,27.9,9.6c8.9,4.2,17.5,9.2,25.5,15.1c4,3,7.9,6.1,11.5,9.5
		c3.6,3.4,7.1,7.1,10.2,11c3.1,3.9,5.9,8.1,8.2,12.5c2.3,4.4,4.1,9.1,5.3,13.9c-2.6-4.2-5.3-8.2-8.2-12c-3-3.8-6.1-7.3-9.5-10.7
		c-3.3-3.4-6.9-6.6-10.5-9.7l-2.7-2.3c-0.9-0.8-1.9-1.5-2.8-2.2c-0.9-0.8-1.9-1.5-2.8-2.2c-1-0.7-1.9-1.5-2.9-2.1
		c-7.7-5.7-15.7-10.9-24-15.9C-1292.2-770.6-1300.6-775.4-1309.2-780.1z"/>
</g>
<rect x="-1268.9" y="-612.2" class="st8" width="109.7" height="83.4"/>
<rect x="-1255.4" y="-598.7" class="st3" width="96.1" height="56.4"/>
<rect x="-1268.9" y="-612.2" class="st8" width="13.5" height="13.5"/>
<polygon class="st2" points="-1284.4,-439.1 -1181.6,-439.1 -1181.6,-370.7 -1249.5,-340.5 -1243.4,-369 -1284.4,-369 "/>
<g>
	<path class="st1" d="M-1159.2-238.7h13.3v36.3h0.2l25.2-36.3h14.6l-24.1,35.2l26.6,48.2h-15.1l-20.2-37.5l-7.4,10.5v27h-13.3
		V-238.7z"/>
	<path class="st1" d="M-1110.7-218.1h13.1l8.8,49.5h0.2l9.3-49.5h14.2l9.3,49.5h0.2l8.6-49.5h12.6l-14.4,62.8h-14.1l-9.8-48.8h-0.2
		l-9,48.8h-14.7L-1110.7-218.1z"/>
	<path class="st1" d="M-1022.5-185.1v3.6c0,8.4,1.1,19.2,10.5,19.2c9,0,10-10.3,10-14h11.9c0,13.9-8.4,22.7-22.1,22.7
		c-10.3,0-23-3-23-32.1c0-16.5,3.5-34,23.2-34c17.5,0,22.2,10.5,22.2,28v6.7H-1022.5z M-1002.3-193.7v-3.4c0-7.9-2.6-14-9.7-14
		c-8.1,0-10.5,7.9-10.5,16.1v1.3H-1002.3z"/>
	<path class="st1" d="M-989.6-218.1h8.6V-236h12.6v17.9h10.3v9.3h-10.3v37.5c0,4.9,1.4,6.7,5.7,6.7c1.9,0,3.4-0.1,4.6-0.3v9.3
		c-2.7,0.7-6.2,1.1-10.2,1.1c-8.5,0-12.7-2.3-12.7-15.2v-39h-8.6V-218.1z"/>
	<path class="st1" d="M-959.5-218.1h8.6V-236h12.6v17.9h10.3v9.3h-10.3v37.5c0,4.9,1.4,6.7,5.7,6.7c1.9,0,3.4-0.1,4.6-0.3v9.3
		c-2.7,0.7-6.2,1.1-10.2,1.1c-8.5,0-12.7-2.3-12.7-15.2v-39h-8.6V-218.1z"/>
	<path class="st1" d="M-915.2-185.1v3.6c0,8.4,1.1,19.2,10.5,19.2c9,0,10-10.3,10-14h11.9c0,13.9-8.4,22.7-22.1,22.7
		c-10.3,0-23-3-23-32.1c0-16.5,3.5-34,23.2-34c17.5,0,22.2,10.5,22.2,28v6.7H-915.2z M-895-193.7v-3.4c0-7.9-2.6-14-9.7-14
		c-8.1,0-10.5,7.9-10.5,16.1v1.3H-895z"/>
	<path class="st1" d="M-876.7-218.1h12.6v9.8h0.2c2.8-7,7.5-11.4,14.6-11.4c1.4,0,2.2,0.2,3,0.5v12.8c-0.9-0.2-3.2-0.7-5.3-0.7
		c-5.7,0-12.6,2.6-12.6,14.2v37.6h-12.6V-218.1z"/>
</g>
<g>
	<path class="st1" d="M-1250.1-81.1v-74.2h-41v-83.4h116.1l0,83.4L-1250.1-81.1z M-1277.7-168.6h41v56l48.6-47.2v-65.6h-89.5V-168.6
		z"/>
</g>
<g>
	<path class="st10" d="M-1160.7-19.2h13.3l0.7,36.3h0.2l24.5-36.3h14.6l-23.4,35.2l27.6,48.2h-15.1l-20.9-37.5l-7.2,10.5l0.5,27
		h-13.3L-1160.7-19.2z"/>
	<path class="st10" d="M-1111.8,1.3h13.1l9.7,49.5h0.2l8.4-49.5h14.2l10.3,49.5h0.2l7.7-49.5h12.6l-13.2,62.8h-14.1l-10.7-48.8h-0.2
		l-8.1,48.8h-14.7L-1111.8,1.3z"/>
	<path class="st10" d="M-1023,34.4l0.1,3.6c0.2,8.4,1.4,19.2,10.9,19.2c9,0,9.8-10.3,9.8-14h11.9c0.3,13.9-8,22.7-21.6,22.7
		c-10.3,0-23.1-3-23.6-32.1c-0.3-16.5,2.9-34,22.6-34c17.5,0,22.4,10.5,22.7,28l0.1,6.7H-1023z M-1003,25.7l-0.1-3.4
		c-0.2-7.9-2.8-14-10-14c-8.1,0-10.4,7.9-10.2,16.1l0,1.3H-1003z"/>
	<path class="st10" d="M-990.7,1.3h8.6l-0.3-17.9h12.6l0.3,17.9h10.3l0.2,9.3h-10.3l0.7,37.5c0.1,4.9,1.5,6.7,5.9,6.7
		c1.9,0,3.4-0.1,4.5-0.3l0.2,9.3c-2.7,0.7-6.2,1.1-10.1,1.1c-8.5,0-12.8-2.3-13-15.2l-0.7-39h-8.6L-990.7,1.3z"/>
	<path class="st10" d="M-960.6,1.3h8.6l-0.3-17.9h12.6l0.3,17.9h10.3l0.2,9.3h-10.3l0.7,37.5c0.1,4.9,1.5,6.7,5.9,6.7
		c1.9,0,3.4-0.1,4.5-0.3l0.2,9.3c-2.7,0.7-6.2,1.1-10.1,1.1c-8.5,0-12.8-2.3-13-15.2l-0.7-39h-8.6L-960.6,1.3z"/>
	<path class="st10" d="M-915.7,34.4l0.1,3.6c0.2,8.4,1.4,19.2,10.9,19.2c9,0,9.8-10.3,9.8-14h11.9c0.3,13.9-8,22.7-21.6,22.7
		c-10.3,0-23.1-3-23.6-32.1c-0.3-16.5,2.9-34,22.6-34c17.5,0,22.4,10.5,22.7,28l0.1,6.7H-915.7z M-895.6,25.7l-0.1-3.4
		c-0.2-7.9-2.8-14-10-14c-8.1,0-10.4,7.9-10.2,16.1l0,1.3H-895.6z"/>
	<path class="st10" d="M-877.8,1.3h12.6l0.2,9.8h0.2c2.7-7,7.3-11.4,14.4-11.4c1.4,0,2.2,0.2,3,0.5l0.2,12.8
		c-0.9-0.2-3.2-0.7-5.3-0.7c-5.7,0-12.6,2.6-12.3,14.2l0.7,37.6h-12.6L-877.8,1.3z"/>
</g>
<g>
	<path class="st3" d="M-1248.6,138.4l-1.4-74.2h-41l-1.6-83.4h116.1l1.6,83.4L-1248.6,138.4z M-1277.9,50.9h41l1.1,56l47.7-47.2
		l-1.3-65.6h-89.5L-1277.9,50.9z"/>
</g>
<circle class="st11" cx="-247.6" cy="-669.4" r="40.3"/>
<line class="st12" x1="-220" y1="-640.2" x2="-188.4" y2="-608.6"/>
<path class="st7" d="M-181.3-498.7l-25-25c5.7-8.2,9-18.1,9-28.7c0-27.8-22.6-50.3-50.3-50.3s-50.3,22.6-50.3,50.3
	s22.6,50.3,50.3,50.3c9.9,0,19.1-2.9,26.9-7.8l25.3,25.3c2,2,4.5,2.9,7.1,2.9c2.6,0,5.1-1,7.1-2.9
	C-177.4-488.5-177.4-494.8-181.3-498.7z M-277.9-552.4c0-16.7,13.6-30.3,30.3-30.3c16.7,0,30.3,13.6,30.3,30.3
	c0,8-3.1,15.3-8.3,20.8c-0.6,0.4-1.1,0.8-1.6,1.3c-0.3,0.3-0.7,0.7-0.9,1.1c-5.3,4.5-12.1,7.2-19.6,7.2
	C-264.3-522.1-277.9-535.7-277.9-552.4z"/>
<polygon class="st7" points="-202.7,-833.5 -242.8,-793.4 -282.8,-833.5 "/>
</svg>
