<svg id="Laag_1" data-name="Laag 1" xmlns="http://www.w3.org/2000/svg" viewBox="0 0 278.81 396.55"><defs><style>.cls-1{fill:#b6b6b6;}</style></defs><title>Tekengebied 1</title><g id="Group_28" data-name="Group 28"><g id="Group_20" data-name="Group 20"><g id="Group_19" data-name="Group 19"><path id="Path_29" data-name="Path 29" class="cls-1" d="M139.4,0A139.43,139.43,0,0,0,20.8,212.69L131.46,391.06a11.6,11.6,0,0,0,9.87,5.49h.1a11.6,11.6,0,0,0,9.87-5.65L259.13,210.82A139.43,139.43,0,0,0,139.4,0Zm99.79,198.89-98,163.69L40.55,200.46a116.23,116.23,0,1,1,198.64-1.56Z"/></g></g><g id="Group_22" data-name="Group 22"><g id="Group_21" data-name="Group 21"><path id="Path_30" data-name="Path 30" class="cls-1" d="M139.4,69.7a69.7,69.7,0,1,0,69.7,69.7A69.71,69.71,0,0,0,139.4,69.7Zm0,116.32A46.62,46.62,0,1,1,186,139.33v.07A46.66,46.66,0,0,1,139.4,186Z"/></g></g></g></svg>