<?xml version="1.0" encoding="utf-8"?>
<!-- Generator: Adobe Illustrator 23.0.0, SVG Export Plug-In . SVG Version: 6.00 Build 0)  -->
<svg version="1.1" id="Capa_1" xmlns="http://www.w3.org/2000/svg" xmlns:xlink="http://www.w3.org/1999/xlink" x="0px" y="0px"
	 viewBox="0 0 44.6 39.5" style="enable-background:new 0 0 44.6 39.5;" xml:space="preserve">
<style type="text/css">
	.st0{fill:#C0C0C0;}
</style>
<path id="Path_27" class="st0" d="M40.9,3.8L40.9,3.8c-5-5-13.2-5-18.2,0l-0.3,0.3L22,3.8C19.6,1.4,16.3,0,12.9,0
	C9.4,0,6.2,1.3,3.8,3.8C1.3,6.2,0,9.4,0,12.9c0,3.4,1.4,6.7,3.8,9.1l16.8,16.8c0.9,0.9,2.4,0.9,3.3,0c0,0,0,0,0,0L40.8,22
	C45.9,17,45.9,8.8,40.9,3.8L40.9,3.8z M39.9,12.9c0,2.2-0.8,4.2-2.4,5.7L22.3,33.8L7.1,18.6c-1.5-1.5-2.4-3.6-2.4-5.8
	c0-2.2,0.8-4.2,2.4-5.7c1.5-1.5,3.6-2.4,5.7-2.4c2.2,0,4.2,0.9,5.8,2.4l2,2c0.9,0.9,2.4,0.9,3.3,0c0,0,0,0,0,0l2-2
	c3.2-3.2,8.3-3.2,11.5,0C39,8.7,39.9,10.7,39.9,12.9L39.9,12.9z"/>
</svg>
