<?xml version="1.0" encoding="utf-8"?>
<!-- Generator: Adobe Illustrator 23.0.0, SVG Export Plug-In . SVG Version: 6.00 Build 0)  -->
<svg version="1.1" id="Laag_1" xmlns="http://www.w3.org/2000/svg" xmlns:xlink="http://www.w3.org/1999/xlink" x="0px" y="0px"
	 viewBox="0 0 309.1 309.1" style="enable-background:new 0 0 309.1 309.1;" xml:space="preserve">
<style type="text/css">
	.st0{fill:#B6B6B6;}
</style>
<title>Tekengebied 1</title>
<path id="Path_31" class="st0" d="M308.8,144.3C303.6,67,242.1,5.5,164.9,0.3V0h-20.6v0.3C67,5.5,5.5,67,0.3,144.3H0v20.6h0.3
	C5.5,242.1,67,303.6,144.3,308.8v0.4h20.6v-0.4c77.2-5.1,138.8-66.7,143.9-143.9h0.4v-20.6H308.8z M96.8,33.7
	C86,48.5,77.8,65,72.5,82.4H41.7C55.1,61.4,74.2,44.5,96.8,33.7z M30.9,103.1h36.2c-2.9,13.6-4.6,27.4-5.1,41.2H21
	C22.1,130.1,25.4,116.2,30.9,103.1z M21,164.9h41c0.5,13.9,2.2,27.6,5.1,41.2H30.9C25.4,193,22.1,179.1,21,164.9z M41.7,226.7h30.8
	c5.3,17.5,13.5,34,24.3,48.8C74.2,264.6,55.1,247.8,41.7,226.7z M144.3,287.2c-21.2-5.6-39.4-28.4-50.5-60.5h50.5L144.3,287.2z
	 M144.3,206.1H88c-3-13.6-4.8-27.3-5.3-41.2h61.6V206.1z M144.3,144.2H82.7c0.5-13.9,2.3-27.7,5.3-41.2h56.3V144.2z M144.3,82.4
	H93.8c11.1-32.1,29.3-54.8,50.5-60.5L144.3,82.4z M267.5,82.4h-30.9c-5.3-17.5-13.5-34-24.3-48.8C234.9,44.5,254,61.4,267.5,82.4
	L267.5,82.4z M164.9,21.9c21.2,5.7,39.4,28.4,50.5,60.5h-50.5V21.9z M164.9,103.1h56.3c3,13.6,4.8,27.3,5.4,41.2h-61.6V103.1z
	 M164.9,164.9h61.6c-0.5,13.9-2.3,27.7-5.4,41.2h-56.3L164.9,164.9z M164.9,287.2v-60.5h50.5C204.3,258.8,186.1,281.6,164.9,287.2z
	 M212.4,275.5c10.7-14.8,19-31.3,24.3-48.8h30.8C254,247.8,234.9,264.6,212.4,275.5L212.4,275.5z M278.3,206.1h-36.2
	c2.9-13.6,4.6-27.4,5.1-41.2h41C287.1,179.1,283.8,193,278.3,206.1z M247.1,144.3c-0.5-13.9-2.2-27.7-5.1-41.2h36.2
	c5.5,13.1,8.8,27,9.9,41.2L247.1,144.3z"/>
</svg>
